<?xml version="1.0" encoding="utf-8"?>
<!-- Generator: Adobe Illustrator 14.0.0, SVG Export Plug-In . SVG Version: 6.00 Build 43363)  -->
<!DOCTYPE svg PUBLIC "-//W3C//DTD SVG 1.1//EN" "http://www.w3.org/Graphics/SVG/1.1/DTD/svg11.dtd">
<svg version="1.1" id="Layer_1" xmlns="http://www.w3.org/2000/svg" xmlns:xlink="http://www.w3.org/1999/xlink" x="0px" y="0px"
	 width="57.6px" height="57.6px" viewBox="0 0 57.6 57.6" enable-background="new 0 0 57.6 57.6" xml:space="preserve">
<path fill-rule="evenodd" clip-rule="evenodd" fill="#1778F2" d="M42.976,0.011L35.623,0c-8.264,0-13.603,5.563-13.603,14.175v6.537
	h-7.396c-0.639,0-1.156,0.526-1.156,1.172v9.471c0,0.647,0.519,1.175,1.156,1.175h7.394v23.896c0,0.646,0.518,1.175,1.157,1.175
	h9.646c0.64,0,1.158-0.528,1.158-1.175V32.529h8.646c0.64,0,1.156-0.527,1.156-1.175l0.004-9.471c0-0.31-0.123-0.608-0.339-0.83
	c-0.217-0.219-0.512-0.342-0.817-0.342H33.98V15.17c0-2.665,0.625-4.016,4.041-4.016h4.954c0.639,0,1.155-0.528,1.155-1.176V1.184
	C44.131,0.539,43.614,0.012,42.976,0.011"/>
</svg>
