<?xml version="1.0" encoding="utf-8"?>
<!-- Generator: Adobe Illustrator 14.0.0, SVG Export Plug-In . SVG Version: 6.00 Build 43363)  -->
<!DOCTYPE svg PUBLIC "-//W3C//DTD SVG 1.1//EN" "http://www.w3.org/Graphics/SVG/1.1/DTD/svg11.dtd">
<svg version="1.1" id="Layer_1" xmlns="http://www.w3.org/2000/svg" xmlns:xlink="http://www.w3.org/1999/xlink" x="0px" y="0px"
	 width="57.6px" height="57.6px" viewBox="0 0 57.6 57.6" enable-background="new 0 0 57.6 57.6" xml:space="preserve">
<g>
	<defs>
		<path id="SVGID_1_" d="M41.482,0H16.118C7.503,0,0.495,7.127,0.495,15.894v25.809c0,8.766,7.009,15.897,15.623,15.897h25.365
			c8.616,0,15.623-7.132,15.623-15.897V15.894C57.107,7.127,50.099,0,41.482,0 M28.801,13.958c-8.042,0-14.586,6.659-14.586,14.843
			c0,8.184,6.544,14.84,14.586,14.84c8.043,0,14.587-6.656,14.587-14.84C43.388,20.617,36.844,13.958,28.801,13.958z M28.801,38.529
			c-5.274,0-9.565-4.365-9.565-9.731c0-5.365,4.291-9.73,9.565-9.73c5.273,0,9.563,4.365,9.563,9.73
			C38.364,34.164,34.074,38.529,28.801,38.529z M43.999,9.624c-0.968,0-1.918,0.398-2.601,1.099
			c-0.688,0.693-1.081,1.662-1.081,2.651c0,0.983,0.394,1.951,1.081,2.649c0.683,0.697,1.633,1.098,2.601,1.098
			c0.972,0,1.919-0.401,2.604-1.098c0.688-0.699,1.079-1.666,1.079-2.649c0-0.989-0.392-1.958-1.079-2.651
			C45.921,10.022,44.971,9.624,43.999,9.624z M52.084,41.702c0,5.946-4.756,10.786-10.6,10.786H16.118
			c-5.844,0-10.6-4.84-10.6-10.786V15.894c0-5.946,4.756-10.782,10.6-10.782l25.365-0.001c5.846,0,10.602,4.836,10.602,10.783
			V41.702z"/>
	</defs>
	<clipPath id="SVGID_2_">
		<use xlink:href="#SVGID_1_"  overflow="visible"/>
	</clipPath>
	
		<linearGradient id="SVGID_3_" gradientUnits="userSpaceOnUse" x1="0" y1="57.0996" x2="1" y2="57.0996" gradientTransform="matrix(-57.353 57.353 -57.3528 -57.3528 3332.2961 3274.9473)">
		<stop  offset="0" style="stop-color:#7E5496"/>
		<stop  offset="0.2" style="stop-color:#B7508A"/>
		<stop  offset="0.41" style="stop-color:#E7467E"/>
		<stop  offset="0.56" style="stop-color:#EB686C"/>
		<stop  offset="0.7" style="stop-color:#F08349"/>
		<stop  offset="0.85" style="stop-color:#F4BB4F"/>
		<stop  offset="1" style="stop-color:#F7EA4D"/>
	</linearGradient>
	<polygon clip-path="url(#SVGID_2_)" fill="url(#SVGID_3_)" points="28.801,-28.307 -28.305,28.8 28.801,85.906 85.907,28.8 	"/>
</g>
</svg>
