<?xml version="1.0" encoding="utf-8"?>
<!-- Generator: Adobe Illustrator 14.0.0, SVG Export Plug-In . SVG Version: 6.00 Build 43363)  -->
<!DOCTYPE svg PUBLIC "-//W3C//DTD SVG 1.1//EN" "http://www.w3.org/Graphics/SVG/1.1/DTD/svg11.dtd">
<svg version="1.1" id="Layer_1" xmlns="http://www.w3.org/2000/svg" xmlns:xlink="http://www.w3.org/1999/xlink" x="0px" y="0px"
	 width="57.6px" height="57.6px" viewBox="0 0 57.6 57.6" enable-background="new 0 0 57.6 57.6" xml:space="preserve">
<path fill-rule="evenodd" clip-rule="evenodd" fill="#784F99" d="M51.015,32.284c-1.419,11.706-9.782,12.445-11.323,12.952
	c-0.657,0.215-6.757,1.769-14.424,1.255l-8.312,9.211l-0.009-10.614l-0.065-0.018C5.716,41.896,6.092,29.992,6.217,23.743
	c0.126-6.248,1.272-11.367,4.68-14.81C17.015,3.259,29.62,4.107,29.62,4.107c10.646,0.048,15.748,3.328,16.93,4.428
	C50.477,11.979,52.478,20.217,51.015,32.284 M49.454,5.614c-1.397-1.317-7.048-5.516-19.633-5.573c0,0-14.839-0.917-22.073,5.878
	c-4.026,4.123-5.443,10.155-5.593,17.637c-0.148,7.482-0.343,21.5,12.857,25.302l0.012,0.004l-0.007,5.8c0,0-0.083,2.35,1.425,2.827
	c1.827,0.58,2.899-1.205,4.644-3.129c0.958-1.055,2.279-2.606,3.275-3.792c9.029,0.774,15.972-1.002,16.759-1.264
	c1.824-0.606,12.139-1.958,13.815-15.975C56.666,18.876,54.096,9.737,49.454,5.614z"/>
<path fill-rule="evenodd" clip-rule="evenodd" fill="#784F99" d="M41.403,34.03c-0.005-0.005-1.692-1.444-2.517-2.065
	c-0.777-0.583-2.017-1.369-2.71-1.77c-1.242-0.708-2.513-0.264-3.037,0.433l-1.089,1.401c-0.559,0.71-1.419,0.591-1.645,0.545
	c-1.61-0.403-3.321-1.41-5.073-3.106c-1.771-1.711-2.844-3.499-3.227-5.357l-0.027-0.123c-0.104-0.764,0.024-1.117,0.336-1.638
	l0.059-0.048c0.736-0.685,2.1-1.517,2.282-2.31c0.536-1.377-1.791-4.249-2.124-4.755c0,0-1.693-2.241-2.294-2.668
	c-0.649-0.541-1.656-0.85-2.671-0.226l-0.052,0.038c-2.916,1.974-3.973,3.108-3.685,4.801l0.15,0.681
	c1.479,4.663,4.335,9.634,8.594,14.061c4.213,4.371,8.77,6.989,13.262,8.803c1.167,0.388,2.377,0.053,3.618-1.007l0.021-0.016
	c0.951-0.89,1.705-1.841,2.267-2.859l0.006-0.021C42.393,35.745,42.208,34.725,41.403,34.03"/>
<path fill-rule="evenodd" clip-rule="evenodd" fill="#784F99" d="M34.41,23.82c-0.178,0-0.325-0.143-0.334-0.326
	c-0.059-1.208-0.385-2.134-0.969-2.753c-0.581-0.614-1.451-0.956-2.586-1.019c-0.184-0.01-0.327-0.172-0.316-0.362
	c0.01-0.189,0.167-0.334,0.353-0.326c1.311,0.072,2.329,0.486,3.032,1.229c0.7,0.741,1.09,1.814,1.157,3.195
	c0.008,0.189-0.135,0.351-0.319,0.36H34.41z"/>
<path fill-rule="evenodd" clip-rule="evenodd" fill="#784F99" d="M37.733,24.961h-0.008c-0.185-0.005-0.331-0.162-0.328-0.352
	c0.052-2.32-0.626-4.281-2.015-5.833c-0.691-0.774-1.531-1.386-2.498-1.818c-0.969-0.433-2.098-0.7-3.353-0.795
	c-0.184-0.014-0.324-0.179-0.31-0.367c0.014-0.19,0.174-0.333,0.359-0.319c2.679,0.202,4.796,1.155,6.298,2.835
	c1.509,1.685,2.246,3.81,2.191,6.312C38.064,24.813,37.915,24.961,37.733,24.961"/>
<path fill-rule="evenodd" clip-rule="evenodd" fill="#784F99" d="M41.137,26.323c-0.185,0-0.335-0.151-0.336-0.341
	c-0.016-2.051-0.324-3.906-0.921-5.516c-0.593-1.598-1.487-3.003-2.659-4.175c-1.174-1.17-2.508-2.063-3.967-2.654
	c-1.461-0.593-3.09-0.9-4.841-0.912c-0.185-0.002-0.334-0.157-0.333-0.347c0.002-0.19,0.152-0.341,0.336-0.341h0.001
	c3.676,0.027,6.794,1.292,9.272,3.763c1.243,1.241,2.19,2.729,2.818,4.423c0.623,1.684,0.947,3.622,0.965,5.754
	c0.002,0.189-0.148,0.345-0.332,0.346H41.137z"/>
</svg>
