<?xml version="1.0" encoding="utf-8"?>
<!-- Generator: Adobe Illustrator 14.0.0, SVG Export Plug-In . SVG Version: 6.00 Build 43363)  -->
<!DOCTYPE svg PUBLIC "-//W3C//DTD SVG 1.1//EN" "http://www.w3.org/Graphics/SVG/1.1/DTD/svg11.dtd">
<svg version="1.1" id="Layer_1" xmlns="http://www.w3.org/2000/svg" xmlns:xlink="http://www.w3.org/1999/xlink" x="0px" y="0px"
	 width="57.6px" height="57.6px" viewBox="0 0 57.6 57.6" enable-background="new 0 0 57.6 57.6" xml:space="preserve">
<path fill-rule="evenodd" clip-rule="evenodd" fill="#26CC63" d="M49.103,8.37C43.714,2.97,36.545,0,28.91,0
	C13.182,0,0.38,12.801,0.38,28.541c0,5.029,1.317,9.947,3.813,14.266L0.142,57.6l15.131-3.971c4.172,2.271,8.867,3.478,13.633,3.478
	h0.011c15.728,0,28.541-12.802,28.541-28.541c0-7.628-2.97-14.792-8.359-20.192L49.103,8.37z M28.917,52.29L28.917,52.29
	c-4.263,0-8.439-1.149-12.082-3.31l-0.868-0.518l-8.979,2.351l2.398-8.751l-0.562-0.9c-2.387-3.77-3.633-8.133-3.633-12.622
	c0-13.082,10.642-23.727,23.739-23.727c6.332,0,12.298,2.476,16.771,6.951c4.479,4.489,6.941,10.44,6.941,16.783
	c-0.011,13.093-10.652,23.737-23.727,23.737V52.29z M41.924,34.517c-0.709-0.36-4.219-2.081-4.87-2.318
	c-0.653-0.237-1.127-0.36-1.61,0.36c-0.471,0.708-1.843,2.318-2.26,2.8c-0.418,0.472-0.833,0.54-1.542,0.18
	c-0.708-0.358-3.016-1.111-5.738-3.542c-2.117-1.89-3.553-4.229-3.971-4.939c-0.417-0.709-0.046-1.102,0.317-1.45
	c0.327-0.317,0.709-0.832,1.069-1.25c0.36-0.418,0.471-0.709,0.708-1.192c0.238-0.471,0.123-0.889-0.057-1.249
	c-0.18-0.36-1.609-3.87-2.192-5.299c-0.573-1.396-1.17-1.203-1.609-1.228c-0.418-0.021-0.89-0.021-1.361-0.021
	c-0.472,0-1.25,0.18-1.901,0.889c-0.652,0.709-2.498,2.441-2.498,5.951c0,3.51,2.552,6.897,2.912,7.38
	c0.36,0.472,5.029,7.682,12.183,10.768c1.699,0.73,3.028,1.17,4.062,1.509c1.709,0.54,3.261,0.461,4.488,0.281
	c1.371-0.201,4.22-1.722,4.816-3.389c0.598-1.666,0.598-3.092,0.418-3.387c-0.169-0.317-0.641-0.493-1.36-0.857L41.924,34.517z"/>
</svg>
