<svg xmlns="http://www.w3.org/2000/svg" xmlns:vectornator="http://vectornator.io" xmlns:xlink="http://www.w3.org/1999/xlink" stroke-miterlimit="10" style="fill-rule:nonzero;clip-rule:evenodd;stroke-linecap:round;stroke-linejoin:round;" version="1.1" xml:space="preserve" viewBox="39.25 40.59 155.2 52.25">
<defs>
<linearGradient gradientTransform="matrix(1 0 0 1 0 0)" gradientUnits="userSpaceOnUse" id="LinearGradient" x1="51.3406" x2="75.0976" y1="87.8673" y2="40.7189">
<stop offset="0.145833" stop-color="#5127ab"/>
<stop offset="0.858333" stop-color="#ff69db"/>
</linearGradient>
</defs>
<g id="Layer-1" vectornator:layerName="Layer 1">
<g opacity="1" vectornator:layerName="Group 3">
<g opacity="1" vectornator:layerName="Group 1">
<path d="M93.5531 85.2768C92.6296 85.2768 92.1679 84.815 92.1679 83.8915L92.1679 64.3002C92.1679 63.3767 92.6296 62.915 93.5531 62.915L102.161 62.915C103.909 62.915 105.254 63.3767 106.193 64.3002C107.133 65.2237 107.603 66.543 107.603 68.2581L107.603 69.1486C107.603 70.6328 107.136 71.7816 106.202 72.5952C107.95 73.5737 108.824 75.3602 108.824 77.9548L108.824 79.0762C108.824 81.0991 108.288 82.6382 107.216 83.6937C106.144 84.7491 104.602 85.2768 102.59 85.2768L93.5531 85.2768ZM94.9384 82.5063L102.59 82.5063C103.833 82.5063 104.72 82.2397 105.254 81.7065C105.787 81.1733 106.053 80.2965 106.053 79.0762L106.053 77.9548C106.053 76.7344 105.795 75.8632 105.278 75.3409C104.762 74.8187 103.866 74.5576 102.59 74.5576L94.9384 74.5576L94.9384 82.5063ZM94.9384 71.7871L102.755 71.7871C103.558 71.7871 104.105 71.5398 104.396 71.045C104.687 70.5503 104.833 69.9181 104.833 69.1486L104.833 68.2581C104.833 67.3016 104.635 66.6337 104.239 66.2544C103.844 65.8751 103.151 65.6855 102.161 65.6855L94.9384 65.6855L94.9384 71.7871Z" fill="#5327ac" fill-rule="nonzero" opacity="1" stroke="none"/>
<path d="M128.745 85.3428C128.382 85.5736 128.036 85.6451 127.706 85.5571C127.376 85.4692 127.096 85.2438 126.865 84.881L121.753 76.3716L117.135 76.3716L117.135 83.8915C117.135 84.815 116.674 85.2768 115.75 85.2768C114.827 85.2768 114.365 84.815 114.365 83.8915L114.365 64.3002C114.365 63.3767 114.827 62.915 115.75 62.915L123.468 62.915C125.48 62.915 127.022 63.4509 128.094 64.5228C129.165 65.5948 129.701 67.1367 129.701 69.1486L129.701 70.138C129.701 71.8861 129.295 73.2796 128.481 74.3185C127.668 75.3574 126.491 76.0033 124.952 76.2562L129.273 83.4628C129.69 84.2324 129.515 84.859 128.745 85.3428ZM117.135 73.6011L123.468 73.6011C124.721 73.6011 125.612 73.3373 126.139 72.8096C126.667 72.2819 126.931 71.3913 126.931 70.138L126.931 69.1486C126.931 67.9062 126.667 67.0185 126.139 66.4853C125.612 65.9521 124.721 65.6855 123.468 65.6855L117.135 65.6855L117.135 73.6011Z" fill="#5327ac" fill-rule="nonzero" opacity="1" stroke="none"/>
<path d="M133.923 85.1449C133.044 84.804 132.78 84.1994 133.132 83.3308L140.981 64.0034C141.311 63.2778 141.828 62.915 142.531 62.915L142.597 62.915C143.312 62.9479 143.796 63.3107 144.049 64.0034L152.03 83.3308C152.382 84.1994 152.129 84.804 151.272 85.1449C150.403 85.4857 149.799 85.2328 149.458 84.3863L147.677 80.0656L137.403 80.0656L135.704 84.3863C135.363 85.2438 134.77 85.4967 133.923 85.1449ZM138.491 77.2951L146.539 77.2951L142.433 67.3016L138.491 77.2951Z" fill="#5327ac" fill-rule="nonzero" opacity="1" stroke="none"/>
<path d="M162.98 85.2768C162.409 85.2768 161.958 84.914 161.628 84.1884L153.482 64.8939C153.317 64.5091 153.273 64.1655 153.35 63.8632C153.427 63.5609 153.679 63.3107 154.108 63.1129C155.01 62.6621 155.647 62.893 156.021 63.8055L163.722 82.0445L162.766 82.0445L170.269 63.8055C170.632 62.904 171.27 62.6731 172.182 63.1129C172.567 63.3107 172.806 63.5609 172.9 63.8632C172.993 64.1655 172.963 64.5091 172.809 64.8939L164.596 84.1884C164.256 84.914 163.761 85.2768 163.112 85.2768L162.98 85.2768Z" fill="#5327ac" fill-rule="nonzero" opacity="1" stroke="none"/>
<path d="M183.099 85.2768C180.582 85.2768 178.721 84.6749 177.517 83.471C176.313 82.2672 175.711 80.4064 175.711 77.8888L175.711 70.27C175.711 67.7303 176.316 65.8641 177.525 64.6713C178.735 63.4784 180.593 62.893 183.099 62.915L187.057 62.915C189.586 62.915 191.449 63.5141 192.648 64.7125C193.846 65.9108 194.445 67.7743 194.445 70.3029L194.445 77.8888C194.445 80.4064 193.846 82.2672 192.648 83.471C191.449 84.6749 189.586 85.2768 187.057 85.2768L183.099 85.2768ZM183.099 82.5063L187.057 82.5063C188.234 82.5063 189.157 82.3661 189.828 82.0858C190.498 81.8054 190.974 81.3299 191.254 80.6593C191.535 79.9887 191.675 79.0652 191.675 77.8888L191.675 70.3029C191.675 69.1376 191.535 68.2196 191.254 67.5489C190.974 66.8783 190.498 66.4001 189.828 66.1142C189.157 65.8284 188.234 65.6855 187.057 65.6855L183.099 65.6855C181.934 65.6745 181.016 65.8064 180.345 66.0812C179.675 66.3561 179.197 66.8288 178.911 67.4995C178.625 68.1701 178.482 69.0936 178.482 70.27L178.482 77.8888C178.482 79.0652 178.622 79.9887 178.902 80.6593C179.183 81.3299 179.658 81.8054 180.329 82.0858C181 82.3661 181.923 82.5063 183.099 82.5063Z" fill="#5327ac" fill-rule="nonzero" opacity="1" stroke="none"/>
</g>
<g opacity="1" vectornator:layerName="Group 2">
<path d="M96.3924 59.7768C95.0556 59.7768 94.0843 59.474 93.4787 58.8683C92.8731 58.2627 92.5702 57.2915 92.5702 55.9546L92.5702 51.6806C92.5702 50.3313 92.8731 49.3569 93.4787 48.7575C94.0843 48.1582 95.0493 47.8585 96.3735 47.8585L98.6518 47.8585C99.8003 47.8585 100.648 48.097 101.194 48.574C101.74 49.051 102.035 49.8229 102.079 50.8898C102.091 51.0216 102.064 51.1236 101.998 51.1958C101.933 51.268 101.834 51.3041 101.702 51.3041C101.445 51.3041 101.307 51.1723 101.288 50.9087C101.25 50.0614 101.032 49.473 100.633 49.1435C100.235 48.814 99.5743 48.6493 98.6518 48.6493L96.3735 48.6493C95.633 48.6493 95.043 48.7466 94.6037 48.9411C94.1644 49.1357 93.8474 49.4542 93.6529 49.8967C93.4583 50.3391 93.361 50.9338 93.361 51.6806L93.361 55.9546C93.361 56.6952 93.4599 57.2867 93.6576 57.7292C93.8553 58.1717 94.1753 58.4918 94.6178 58.6895C95.0603 58.8872 95.6518 58.986 96.3924 58.986L98.6518 58.986C99.5743 58.986 100.235 58.8213 100.633 58.4918C101.032 58.1623 101.25 57.5739 101.288 56.7266C101.307 56.463 101.445 56.3312 101.702 56.3312C101.834 56.3312 101.933 56.3673 101.998 56.4395C102.064 56.5117 102.091 56.6136 102.079 56.7454C102.035 57.8061 101.74 58.5765 101.194 59.0566C100.648 59.5367 99.8003 59.7768 98.6518 59.7768L96.3924 59.7768Z" fill="#5327ac" fill-rule="nonzero" opacity="1" stroke="none"/>
<path d="M113.3 59.7956C113.187 59.8584 113.085 59.8803 112.994 59.8615C112.903 59.8427 112.823 59.7831 112.754 59.6826L109.61 54.7496L105.882 54.7496L105.882 59.3814C105.882 59.645 105.75 59.7768 105.486 59.7768C105.223 59.7768 105.091 59.645 105.091 59.3814L105.091 48.2539C105.091 47.9903 105.223 47.8585 105.486 47.8585L109.892 47.8585C110.94 47.8585 111.73 48.1237 112.26 48.654C112.79 49.1843 113.055 49.9735 113.055 51.0216L113.055 51.5865C113.055 52.5154 112.844 53.2418 112.42 53.7659C111.996 54.2899 111.367 54.6053 110.532 54.712L113.413 59.2496C113.564 59.4818 113.526 59.6638 113.3 59.7956ZM105.882 53.9589L109.892 53.9589C110.714 53.9589 111.315 53.7674 111.695 53.3846C112.075 53.0017 112.265 52.4024 112.265 51.5865L112.265 51.0216C112.265 50.1995 112.075 49.5985 111.695 49.2188C111.315 48.8391 110.714 48.6493 109.892 48.6493L105.882 48.6493L105.882 53.9589Z" fill="#5327ac" fill-rule="nonzero" opacity="1" stroke="none"/>
<path d="M116.444 59.7768C116.181 59.7768 116.049 59.645 116.049 59.3814L116.049 48.2539C116.049 47.9903 116.181 47.8585 116.444 47.8585L123.599 47.8585C123.863 47.8585 123.995 47.9903 123.995 48.2539C123.995 48.5175 123.863 48.6493 123.599 48.6493L116.84 48.6493L116.84 53.3375L121.377 53.3375C121.641 53.3375 121.773 53.4693 121.773 53.7329C121.773 53.9965 121.641 54.1283 121.377 54.1283L116.84 54.1283L116.84 58.986L123.599 58.986C123.863 58.986 123.995 59.1178 123.995 59.3814C123.995 59.645 123.863 59.7768 123.599 59.7768L116.444 59.7768Z" fill="#5327ac" fill-rule="nonzero" opacity="1" stroke="none"/>
<path d="M128.899 59.7768C128.692 59.7768 128.56 59.6826 128.504 59.4944L124.851 48.3857C124.814 48.2727 124.829 48.1566 124.898 48.0374C124.967 47.9181 125.077 47.8585 125.228 47.8585C125.322 47.8585 125.402 47.882 125.468 47.9291C125.534 47.9762 125.579 48.0468 125.604 48.1409L129.05 58.6094L128.824 58.6094L132.081 48.1409C132.113 48.0342 132.174 47.9573 132.265 47.9103C132.356 47.8632 132.452 47.8397 132.552 47.8397C132.659 47.8397 132.758 47.8632 132.849 47.9103C132.94 47.9573 132.998 48.0342 133.023 48.1409L136.28 58.6094L136.054 58.6094L139.5 48.1409C139.531 48.0468 139.578 47.9762 139.641 47.9291C139.704 47.882 139.782 47.8585 139.876 47.8585C140.065 47.8585 140.184 47.9181 140.234 48.0374C140.284 48.1566 140.29 48.2727 140.253 48.3857L136.6 59.4944C136.544 59.6826 136.406 59.7768 136.186 59.7768L136.148 59.7768C135.929 59.7768 135.791 59.6826 135.734 59.4944L132.439 48.9317L132.665 48.9317L129.37 59.4944C129.332 59.6262 129.273 59.7062 129.191 59.7344C129.11 59.7627 129.012 59.7768 128.899 59.7768Z" fill="#5327ac" fill-rule="nonzero" opacity="1" stroke="none"/>
</g>
<path d="M62.2812 40.5938L56.75 43.6875L79.875 56.9062L79.875 74.75L85.3438 71.75L85.3438 55.3438C85.3438 54.5052 84.764 53.483 84.0312 53.0625L62.2812 40.5938ZM54.6875 44.7812L40.5938 53.0312C39.8633 53.4584 39.2823 54.4726 39.2812 55.3125L39.25 80.0625L44.7188 83.25L44.75 56.875L60.2812 48.0312L54.6875 44.7812ZM61.4688 53L49.875 59.5312L62.2812 65.2188L74.1875 59.5312L62.875 53.0625C62.4831 52.8368 61.8629 52.7783 61.4688 53ZM49.125 61.4375L49.125 73.9375C49.125 74.4185 49.4273 75.0405 49.8438 75.2812L61.3125 81.9062L61.3125 66.9688L49.125 61.4375ZM74.8125 61.4688L63.3125 66.9375L63.3125 81.9688L74.0938 74.9375C74.496 74.7067 74.8136 74.12 74.8125 73.6562L74.8125 61.4688ZM85.3438 74.0312L62.3125 87.0312L46.7188 78.0312L46.7188 84.375L60.9375 92.5312C61.6723 92.9512 62.8896 92.9502 63.625 92.5312L85.3438 80.0938L85.3438 74.0312Z" fill="url(#LinearGradient)" fill-rule="nonzero" opacity="0.991023" stroke="none" vectornator:layerName="Curve 1"/>
</g>
</g>
</svg>