<svg width="280" height="180" xmlns="http://www.w3.org/2000/svg" xmlns:undefined="http://vectornator.io" clip-rule="evenodd" xml:space="preserve" version="1.1" stroke-miterlimit="10">

 <g>
  <title>Layer 1</title>
  <g stroke="null"  id="Layer-1">
   <g stroke="null" id="svg_1">
    <g stroke="null" id="svg_2">
     <path stroke="null" id="svg_3" fill-rule="nonzero" fill="#ffffff" d="m87.6532,92.92958c-3.70824,0 -7.1189,-0.53588 -10.232,-1.60747c-3.11309,-1.0716 -5.78002,-2.54733 -8.00039,-4.42719c-2.22037,-1.88003 -3.96009,-4.09832 -5.21897,-6.65503c-1.25907,-2.55687 -1.88851,-5.32027 -1.88851,-8.29067c0,-2.9704 0.62944,-5.73379 1.88851,-8.29067c1.25888,-2.55671 2.9986,-4.77501 5.21897,-6.65503c2.22037,-1.87987 4.8873,-3.3556 8.00039,-4.42719c3.11309,-1.0716 6.52376,-1.60747 10.232,-1.60747c3.70824,0 7.1191,0.53588 10.23219,1.60747c3.11309,1.0716 5.77982,2.54733 8.0002,4.42719c2.22037,1.88003 3.96009,4.09832 5.21916,6.65503c1.25888,2.55687 1.88831,5.32027 1.88831,8.29067c0,2.9704 -0.62944,5.73379 -1.88831,8.29067c-1.25907,2.55671 -2.99879,4.77501 -5.21916,6.65503c-2.22037,1.87987 -4.8871,3.3556 -8.0002,4.42719c-3.11309,1.0716 -6.52395,1.60747 -10.23219,1.60747zm0,-5.07588c2.79266,0 5.3106,-0.42307 7.55403,-1.26905c2.24323,-0.84598 4.16603,-1.98329 5.76839,-3.41208c1.60236,-1.42879 2.83838,-3.11137 3.70824,-5.04772c0.86986,-1.93635 1.30479,-3.9949 1.30479,-6.17564c0,-2.18074 -0.43493,-4.23929 -1.30479,-6.17564c-0.86986,-1.93635 -2.10588,-3.61892 -3.70824,-5.04772c-1.60236,-1.42879 -3.52516,-2.5661 -5.76839,-3.41208c-2.24343,-0.84598 -4.76137,-1.26905 -7.55403,-1.26905c-2.79266,0 -5.3106,0.42307 -7.55384,1.26905c-2.24323,0.84598 -4.16603,1.98329 -5.76839,3.41208c-1.60236,1.42879 -2.83857,3.11137 -3.70824,5.04772c-0.86986,1.93635 -1.30479,3.9949 -1.30479,6.17564c0,2.18074 0.43493,4.23929 1.30479,6.17564c0.86967,1.93635 2.10588,3.61892 3.70824,5.04772c1.60236,1.42879 3.52516,2.5661 5.76839,3.41208c2.24323,0.84598 4.76118,1.26905 7.55384,1.26905z"/>
     <path stroke="null" id="svg_4" fill-rule="nonzero" fill="#ffffff" d="m129.49445,51.98412l7.62242,0l14.28392,32.48566l0.13716,0l14.83257,-32.48566l7.21073,0l-19.15901,39.93019l-6.18046,0l-18.74733,-39.93019z"/>
     <path stroke="null" id="svg_5" fill-rule="nonzero" fill="#ffffff" d="m203.97599,51.98269l-21.40747,39.92351l7.69119,0l7.14293,-14.60123l9.19843,-18.33089l0.13561,0l9.06088,18.33089l2.37323,4.74207l0.02325,0l3.05904,6.16657l1.82496,3.69259l0.02325,0l7.66794,0l-20.81465,-39.92351l-5.97859,0z"/>
     <path stroke="null" id="svg_6" fill-rule="nonzero" fill="#ffffff" d="m249.56906,51.98412l6.59079,0l0,34.85431l22.31995,0l0,5.07588l-28.91074,0l0,-39.93019z"/>
     <path stroke="null" id="svg_7" fill-rule="nonzero" fill="#ffffff" d="m65.23386,71.94921l0,5.41685l43.49998,0l2.39551,-5.41685l-45.89549,0z"/>
     <path stroke="null" id="svg_8" fill-rule="nonzero" fill="#ffffff" d="m224.89332,69.36052l3.29733,4.69116l-37.67134,17.86264l-5.37221,-3.70739l39.74622,-18.8464z"/>
     <path stroke="null" id="svg_9" fill-rule="nonzero" fill="#ffffff" d="m9.55351,51.98269l0,39.92351l6.59563,0l0,-19.96175l2.76147,2.38042l28.48201,-22.34218l-9.19727,0l-22.04621,17.26264l0,-17.26264l-6.59563,0z"/>
     <path stroke="null" id="svg_10" fill-rule="nonzero" fill="#ffffff" d="m15.87947,76.70163l31.51316,-24.71894l-9.19727,0l-22.04621,17.26264l-0.26968,7.4563z"/>
     <path stroke="null" id="svg_11" fill-rule="nonzero" fill="#ffffff" d="m43.95929,91.91431l-5.85325,-3.93571l-19.62223,-15.39184l4.34736,-3.81399l15.00538,11.74953l14.62876,11.39201l-8.50603,0z"/>
     <path stroke="null" id="svg_12" fill-rule="nonzero" fill="#ffffff" d="m1.52019,87.04257l42.4391,0l0,4.87174l-42.4391,0l0,-4.87174z"/>
     <path stroke="null" id="svg_13" fill-rule="nonzero" fill="#ffffff" d="m241.53496,87.04257l36.94484,0l0,4.87174l-36.94484,0l0,-4.87174z"/>
     <path stroke="null" id="svg_14" fill-rule="nonzero" fill="#ffffff" d="m8.11582,51.98269l0,39.93162l-6.59563,0l0,-39.93162l6.59563,0z"/>
     <path stroke="null" id="svg_15" fill-rule="nonzero" fill="#ffffff" d="m248.12963,51.98269l0,39.72621l-6.59466,0l0,-39.72621l6.59466,0z"/>
     <path stroke="null" id="svg_16" fill-rule="nonzero" fill="#ffffff" d="m121.43884,51.96391l18.75992,39.94228l6.18473,0l0.06858,-0.16881l-3.07686,-6.82766l-14.8378,-32.9256l-7.09856,-0.02021z"/>
    </g>
    <g stroke="null" id="svg_17">
     <g stroke="null" id="svg_18">
      <path stroke="null" id="svg_19" fill-rule="nonzero" fill="#ffffff" d="m142.3771,100.48215l0,28.53786l4.71487,0l0,-14.26885l1.97394,1.70246l20.35977,-15.97147l-6.57529,0l-15.75842,12.34062l0,-12.34062l-4.71487,0z"/>
      <path stroke="null" id="svg_20" fill-rule="nonzero" fill="#ffffff" d="m146.89921,118.15131l22.52647,-17.66916l-6.57529,0l-15.75842,12.34062l-0.19276,5.32854z"/>
      <path stroke="null" id="svg_21" fill-rule="nonzero" fill="#ffffff" d="m166.97109,129.02637l-4.18269,-2.81304l-14.02761,-11.00235l3.10767,-2.72712l10.72621,8.39934l10.4577,8.14317l-6.08127,0z"/>
      <path stroke="null" id="svg_22" fill-rule="nonzero" fill="#ffffff" d="m136.63486,125.54349l30.33623,0l0,3.48289l-30.33623,0l0,-3.48289z"/>
      <path stroke="null" id="svg_23" fill-rule="nonzero" fill="#ffffff" d="m141.34954,100.48215l0,28.54423l-4.71468,0l0,-28.54423l4.71468,0z"/>
      <path stroke="null" id="svg_24" fill-rule="nonzero" fill="#ffffff" d="m127.36939,100.48071l-20.42215,24.37065l17.62174,0l0,4.17978l5.41503,0l0,-4.17978l3.82138,0l0,-4.05409l-3.82138,0l0,-20.31657l-2.61462,0zm-2.80041,10.44388l0,9.87268l-8.27704,0l8.27704,-9.87268z"/>
     </g>
    </g>
   </g>
  </g>
 </g>
</svg>