<?xml version="1.0" standalone="no"?>
<!DOCTYPE svg PUBLIC "-//W3C//DTD SVG 20010904//EN"
 "http://www.w3.org/TR/2001/REC-SVG-20010904/DTD/svg10.dtd">
<svg version="1.0" xmlns="http://www.w3.org/2000/svg"
 width="2000.000000pt" height="2000.000000pt" viewBox="0 0 2000.000000 2000.000000"
 preserveAspectRatio="xMidYMid meet">
<metadata>
Created by potrace 1.14, written by Peter Selinger 2001-2017
</metadata>
<g transform="translate(0.000000,2000.000000) scale(0.100000,-0.100000)"
fill="#000000" stroke="none">
<path d="M0 10000 l0 -10000 10000 0 10000 0 0 10000 0 10000 -10000 0 -10000
0 0 -10000z m19958 9953 c5 -8 8 -19850 3 -19908 -1 -11 -19899 -13 -19917 -3
-10 7 -12 19898 -2 19914 9 14 19908 10 19916 -3z"/>
<path d="M6505 13840 c-98 -14 -130 -20 -155 -25 -14 -3 -38 -8 -53 -10 -118
-22 -355 -124 -490 -211 -360 -232 -602 -616 -682 -1079 -9 -50 -17 -165 -19
-257 -12 -590 290 -1142 773 -1415 47 -27 111 -59 141 -72 30 -13 73 -32 95
-41 57 -25 240 -70 348 -85 121 -17 424 -12 537 9 443 81 802 316 1038 675
107 165 206 418 236 611 30 188 28 457 -5 620 -6 30 -13 68 -16 85 -23 135
-138 390 -245 548 -56 82 -211 250 -293 318 -150 123 -436 260 -615 294 -14 3
-36 7 -50 10 -14 3 -41 8 -60 11 -19 4 -46 8 -60 11 -46 8 -374 10 -425 3z
m445 -404 c109 -24 163 -43 272 -98 301 -152 508 -417 592 -759 27 -110 36
-173 41 -276 l3 -63 -1152 0 c-634 0 -1155 2 -1157 5 -5 4 6 162 16 222 20
131 71 280 134 399 165 308 453 516 801 578 101 18 352 13 450 -8z m835 -1618
c11 -10 -54 -162 -105 -248 -172 -287 -441 -474 -770 -535 -19 -4 -105 -8
-190 -10 -132 -3 -171 0 -265 20 -381 80 -681 341 -821 711 -13 34 -21 63 -19
65 6 7 2163 4 2170 -3z"/>
<path d="M3581 13762 c-14 -7 -33 -21 -42 -30 -14 -15 -238 -229 -494 -473
-49 -47 -144 -137 -210 -200 -66 -64 -138 -132 -160 -153 -22 -21 -107 -102
-188 -180 -224 -213 -281 -266 -287 -266 -3 0 -5 295 -4 655 l1 655 -209 0
-208 0 0 -1345 0 -1344 -45 1 -45 1 0 1343 0 1344 -207 0 -208 0 -1 -1530 c-1
-1106 2 -1530 10 -1531 11 0 3187 0 3195 1 4 0 -52 54 -209 202 -41 39 -142
135 -225 213 -82 79 -168 160 -190 180 -22 21 -81 76 -130 124 -50 47 -174
165 -275 261 -101 96 -234 223 -295 281 -113 109 -248 237 -368 351 l-68 64
181 175 c100 96 205 196 233 223 61 57 322 307 756 722 58 56 143 136 189 179
45 43 80 80 77 83 -2 3 -127 5 -277 6 -207 1 -278 -2 -297 -12z m-1021 -1778
c58 -56 125 -121 150 -144 25 -23 121 -115 214 -204 93 -88 221 -211 285 -272
64 -61 156 -149 205 -196 l90 -86 -640 0 c-351 0 -646 1 -654 4 -13 3 -15 56
-14 405 l0 401 115 108 c94 89 117 106 129 97 8 -7 62 -58 120 -113z"/>
<path d="M8853 13772 c-23 -3 -23 -5 8 -77 5 -11 147 -378 315 -815 168 -437
354 -921 414 -1075 226 -588 412 -1070 417 -1082 4 -10 54 -13 205 -13 187 0
200 1 193 18 -4 9 -36 96 -72 192 -35 96 -89 243 -120 325 -30 83 -70 191 -88
240 -52 141 -149 403 -395 1065 -73 195 -149 402 -170 460 -20 58 -60 166 -88
240 -28 74 -80 217 -117 317 -37 99 -71 186 -74 192 -7 10 -371 21 -428 13z"/>
<path d="M9350 13743 c4 -16 83 -221 175 -458 91 -236 198 -513 236 -615 39
-102 74 -194 80 -205 10 -23 417 -1077 485 -1260 25 -66 52 -133 59 -150 7
-16 39 -97 70 -180 31 -82 63 -154 69 -160 8 -6 83 -8 201 -5 l187 5 25 65
c14 36 31 79 38 95 7 17 65 165 130 330 64 165 121 309 126 320 12 28 322 815
375 955 24 63 48 124 53 135 10 21 17 38 96 240 60 151 218 553 296 750 32 83
59 154 59 158 0 4 -102 6 -226 5 l-226 -3 -279 -745 c-153 -410 -290 -774
-303 -810 -27 -75 -156 -418 -224 -595 -25 -66 -62 -167 -83 -224 -21 -57 -41
-106 -44 -109 -2 -3 -9 6 -13 19 -22 57 -444 1225 -537 1484 -25 72 -55 153
-65 180 -18 49 -89 245 -215 595 -35 96 -66 183 -70 193 -7 15 -28 17 -245 17
l-239 0 9 -27z"/>
<path d="M14000 13704 c-16 -37 -30 -68 -30 -70 0 -2 -11 -27 -24 -56 -13 -29
-43 -96 -66 -148 -23 -52 -50 -113 -60 -135 -9 -22 -50 -114 -90 -205 -40 -91
-90 -205 -112 -255 -22 -49 -80 -181 -129 -292 -48 -111 -97 -221 -108 -245
-40 -88 -242 -548 -250 -570 -5 -13 -22 -52 -39 -88 -16 -36 -44 -99 -62 -140
-18 -41 -40 -93 -50 -115 -10 -22 -37 -83 -60 -135 -23 -52 -48 -108 -55 -125
-7 -16 -52 -117 -98 -222 l-85 -193 251 0 252 0 80 46 c44 26 103 59 130 74
28 15 104 59 170 98 347 203 1268 732 1274 732 4 0 21 -35 38 -77 17 -43 91
-222 163 -397 72 -176 145 -355 162 -398 l31 -78 244 0 c134 0 242 3 240 8 -2
4 -44 99 -92 212 -48 113 -93 219 -100 235 -29 65 -116 268 -184 430 -40 94
-81 188 -90 210 -35 76 -35 78 12 104 159 88 287 167 287 174 0 6 -45 88 -100
183 l-101 173 -146 -85 c-80 -46 -148 -82 -151 -80 -4 5 -227 522 -512 1191
l-128 300 -191 3 -191 2 -30 -66z m405 -961 c108 -269 203 -501 210 -518 19
-44 65 -163 65 -168 0 -3 -53 -36 -117 -73 -65 -37 -347 -199 -627 -361 -279
-162 -510 -292 -512 -290 -6 5 156 406 426 1062 7 17 19 44 26 60 14 35 107
261 201 490 35 88 71 174 78 190 7 17 18 45 25 63 7 17 16 32 20 32 4 0 96
-219 205 -487z"/>
<path d="M16399 13753 c-4 -108 -2 -3028 2 -3035 6 -10 2268 -19 2310 -10 15
3 17 26 18 192 0 170 -1 189 -17 194 -9 2 -309 5 -667 5 -357 0 -667 0 -687 0
l-38 1 0 1335 0 1335 -208 0 -208 0 1 -1327 c0 -731 -1 -1336 -3 -1346 -4 -14
-13 -17 -46 -15 l-41 3 -2 1335 c-1 734 -2 1338 -2 1343 -1 4 -93 7 -206 7
-188 0 -205 -1 -206 -17z"/>
<path d="M9174 10008 c-16 -24 -65 -95 -109 -158 -91 -133 -139 -203 -217
-315 -63 -92 -782 -1137 -870 -1265 l-58 -85 555 -3 555 -2 -1 -128 c0 -70 0
-142 0 -159 l1 -33 170 0 170 0 0 160 0 160 120 0 120 0 0 155 0 155 -27 1
c-16 0 -70 0 -120 -1 l-93 -1 0 781 0 780 -83 0 -83 0 -30 -42z m-146 -1142
l0 -374 -259 0 c-187 1 -257 4 -252 12 6 11 208 305 361 526 39 58 88 129 107
158 19 28 37 52 39 52 3 0 5 -168 4 -374z"/>
<path d="M9790 9963 c0 -49 -1 -541 -3 -1096 l-2 -1007 1143 0 c628 0 1142 3
1142 7 0 4 -21 27 -47 52 -54 49 -316 298 -462 437 -53 50 -113 107 -133 126
-48 45 -375 357 -505 482 l-102 99 32 30 c18 16 113 106 211 201 99 94 194
185 211 201 31 29 334 319 500 478 l80 76 -210 1 -210 0 -86 -83 c-149 -143
-440 -421 -478 -456 -20 -18 -120 -114 -223 -213 -103 -99 -190 -179 -194
-179 -3 1 -7 210 -7 466 l0 465 -148 0 -149 0 0 -961 0 -960 -32 3 -33 3 0
958 0 957 -147 0 -148 0 0 -87z m912 -1185 c103 -100 409 -391 454 -433 17
-16 74 -72 127 -122 l96 -93 -467 0 -467 0 1 286 2 287 78 78 c44 43 81 79 84
79 3 0 44 -37 92 -82z"/>
</g>
</svg>
